<?xml version="1.0" encoding="UTF-8" standalone="no"?>
<svg
   width="500"
   height="498"
   viewBox="0 0 500 497.99999"
   version="1.1"
   id="svg20"
   sodipodi:docname="UTorrent (copia).svg"
   inkscape:version="1.1.2 (0a00cf5339, 2022-02-04)"
   xmlns:inkscape="http://www.inkscape.org/namespaces/inkscape"
   xmlns:sodipodi="http://sodipodi.sourceforge.net/DTD/sodipodi-0.dtd"
   xmlns:xlink="http://www.w3.org/1999/xlink"
   xmlns="http://www.w3.org/2000/svg"
   xmlns:svg="http://www.w3.org/2000/svg"
   xmlns:rdf="http://www.w3.org/1999/02/22-rdf-syntax-ns#"
   xmlns:cc="http://creativecommons.org/ns#"
   xmlns:dc="http://purl.org/dc/elements/1.1/">
  <defs
     id="defs24"><linearGradient
   xlink:href="#grad1"
   id="grad2"
   x1="231.40331"
   y1="385.54355"
   x2="231.40331"
   y2="406.5336"
   gradientTransform="matrix(1.0000981,0,0,0.99990195,-215.777,-306.0001)"
   gradientUnits="userSpaceOnUse" />
<linearGradient
   id="grad1">
  <stop
     offset="0.0000%"
     stop-color="#cf9e48"
     stop-opacity="1.0000"
     id="stop12" />
  <stop
     offset="14.0000%"
     stop-color="#cf9e48"
     stop-opacity="1.0000"
     id="stop14" />
  <stop
     offset="100.0000%"
     stop-color="#f9b900"
     stop-opacity="1.0000"
     id="stop16" />
</linearGradient>
<linearGradient
   xlink:href="#grad3"
   id="grad4"
   x1="67.862083"
   y1="1299.9646"
   x2="67.862083"
   y2="1308.7313"
   gradientTransform="matrix(3.3486196,0,0,0.29863052,-215.777,-306.0001)"
   gradientUnits="userSpaceOnUse" />
<linearGradient
   id="grad3">
  <stop
     offset="0.0000%"
     stop-color="#548a42"
     stop-opacity="1.0000"
     id="stop30" />
  <stop
     offset="71.0000%"
     stop-color="#75aa64"
     stop-opacity="1.0000"
     id="stop32" />
  <stop
     offset="100.0000%"
     stop-color="#4e7f3f"
     stop-opacity="1.0000"
     id="stop34" />
</linearGradient>
<linearGradient
   xlink:href="#grad5"
   id="grad6"
   x1="234.03081"
   y1="399.9007"
   x2="234.03081"
   y2="410.68167"
   gradientTransform="matrix(1.0104473,0,0,0.98966069,-215.777,-306.0001)"
   gradientUnits="userSpaceOnUse" />
<linearGradient
   id="grad5">
  <stop
     offset="0.0000%"
     stop-color="#75aa64"
     stop-opacity="1.0000"
     id="stop46" />
  <stop
     offset="71.0000%"
     stop-color="#75aa64"
     stop-opacity="1.0000"
     id="stop48" />
  <stop
     offset="100.0000%"
     stop-color="#4e7f3f"
     stop-opacity="1.0000"
     id="stop50" />
</linearGradient>
<linearGradient
   xlink:href="#grad5"
   id="grad8"
   x1="180.94569"
   y1="505.47989"
   x2="180.94569"
   y2="515.07788"
   gradientTransform="matrix(1.3024482,0,0,0.76778484,-215.777,-306.0001)"
   gradientUnits="userSpaceOnUse" />
<linearGradient
   id="grad9"
   gradientTransform="matrix(0.99996187,0,0,1.0000381,-215.777,-306.0001)"
   x1="237.81467"
   y1="403.6908"
   x2="239.12611"
   y2="403.6908"
   gradientUnits="userSpaceOnUse">
  <stop
     offset="0.0000%"
     stop-color="#75aa64"
     stop-opacity="1.0000"
     id="stop72" />
  <stop
     offset="17.0000%"
     stop-color="#75aa64"
     stop-opacity="1.0000"
     id="stop74" />
  <stop
     offset="100.0000%"
     stop-color="#4e7f3f"
     stop-opacity="1.0000"
     id="stop76" />
</linearGradient>
<linearGradient
   id="grad10"
   x1="244.72791"
   y1="403.70621"
   x2="246.0394"
   y2="403.70621"
   gradientUnits="userSpaceOnUse"
   gradientTransform="translate(-215.777,-306.0001)">
  <stop
     offset="0.0000%"
     stop-color="#75aa64"
     stop-opacity="1.0000"
     id="stop83" />
  <stop
     offset="17.0000%"
     stop-color="#75aa64"
     stop-opacity="1.0000"
     id="stop85" />
  <stop
     offset="100.0000%"
     stop-color="#4e7f3f"
     stop-opacity="1.0000"
     id="stop87" />
</linearGradient>

	
	
	
	
	
	
	
	
	
	
	
	
	
	
	
	
</defs>
  <sodipodi:namedview
     id="namedview22"
     pagecolor="#ffffff"
     bordercolor="#000000"
     borderopacity="0.25"
     inkscape:pageshadow="2"
     inkscape:pageopacity="0.0"
     inkscape:pagecheckerboard="0"
     showgrid="false"
     inkscape:zoom="2.8284271"
     inkscape:cx="327.74399"
     inkscape:cy="238.29499"
     inkscape:window-width="1920"
     inkscape:window-height="974"
     inkscape:window-x="-11"
     inkscape:window-y="-11"
     inkscape:window-maximized="1"
     inkscape:current-layer="svg20"
     showguides="true"
     inkscape:guide-bbox="true"
     inkscape:object-paths="true"
     inkscape:snap-intersection-paths="true"
     inkscape:snap-smooth-nodes="true"
     inkscape:snap-midpoints="true" />
  <!-- Generator: Sketch 56.3 (81716) - https://sketch.com -->
  <title
     id="title2">Group</title>
  <desc
     id="desc4">Created with Sketch.</desc>
  <metadata
     id="metadata26">
    <rdf:RDF>
      <cc:Work
         rdf:about="">
        <dc:title>Group</dc:title>
      </cc:Work>
    </rdf:RDF>
  </metadata>
  <style
     type="text/css"
     id="style851">
	.st0{fill:#00934B;}
	.st1{fill:#22D511;}
	.st2{fill:#BEF000;}
</style>
  <g
     id="g931"
     transform="matrix(1.5204774,0,0,1.5204774,-223.0693,-662.41929)">
		<path
   class="st0"
   d="m 204.2,548.5 0.8,0.3 7.4,3.3 8.2,3.6 c 9.2,-19.5 24.9,-35.8 45.6,-45.6 l -3.6,-8.2 -5.2,-12 c -5.9,-11.7 -16.5,-7.8 -20.3,-5.9 -16.8,10.5 -30.7,24.2 -41.2,40.2 -0.2,0.2 -0.2,0.3 -0.2,0.6 -6.5,15.6 5.2,22.1 8.5,23.7 z"
   id="path883" />

		<path
   class="st1"
   d="m 220.9,555.6 13.3,5.9 11.6,5.1 9.2,4.1 c 5.5,-11.2 14.7,-20.7 26.6,-26.6 l -4.1,-9.2 -5.1,-11.6 -5.9,-13.3 c -20.8,9.8 -36.5,26.3 -45.6,45.6 z"
   id="path885" />

		<path
   class="st2"
   d="m 254.8,570.7 19.2,8.4 17.7,7.8 c 2.4,-0.2 4.4,-1.7 5.4,-4 0.3,-0.8 0.5,-1.4 0.5,-2.2 l -7.8,-17.6 -8.4,-19.2 c -11.9,6 -21.1,15.5 -26.6,26.8 z"
   id="path887" />

		<path
   class="st0"
   d="M 445.8,571.8 C 439.6,556.4 427,559.9 423.5,561.3 l -1,0.3 -7.8,3 -8.4,3.3 c 7.8,21.5 7.3,44.4 0,64.6 l 8.4,3.3 10.8,4.1 c 12.5,5.2 17.7,-3.6 19.6,-8.4 4.8,-19.2 5.1,-39.6 0.7,-59.7 z"
   id="path889" />

		<path
   class="st1"
   d="m 406.5,568 -13.5,5.2 -11.9,4.6 -9.3,3.6 c 4.3,12.7 4.1,25.8 0,37.7 l 9.2,3.6 11.9,4.6 13.5,5.2 c 7.4,-20.2 7.9,-42.8 0.1,-64.5 z"
   id="path891" />

		<path
   class="st2"
   d="m 372,581.4 -19.5,7.6 -18.1,7.1 c -1.6,1.7 -2.1,4.3 -1.1,6.7 0.3,0.6 0.6,1.3 1.1,1.7 l 18.1,7 19.5,7.6 c 3.9,-11.8 4.2,-25 0,-37.7 z"
   id="path893" />

		<path
   class="st0"
   d="m 207.4,635.9 8.4,-3.3 c -7.8,-21.5 -7.3,-44.4 0,-64.6 l -8.4,-3.3 -10.9,-4.3 c -12.7,-5.1 -17.7,4.3 -19.5,8.9 -4.6,19 -4.9,39.1 -0.6,58.9 0,0 0,0 0,0.2 6.2,15.8 19,12.2 22.5,10.9 z"
   id="path895" />

		<path
   class="st1"
   d="m 215.8,632.6 13.5,-5.2 11.7,-4.6 9.3,-3.6 c -4.3,-12.7 -4.1,-25.8 0,-37.7 l -9.3,-3.6 -11.7,-4.4 -13.5,-5.2 c -7.3,20.1 -7.8,42.8 0,64.3 z"
   id="path897" />

		<path
   class="st2"
   d="m 250.5,619.1 19.5,-7.6 17.9,-7 c 1.6,-1.7 2.1,-4.3 1.1,-6.7 -0.3,-0.8 -0.8,-1.4 -1.3,-1.9 l -17.9,-7 -19.5,-7.6 c -3.9,12.2 -4.1,25.3 0.2,37.8 z"
   id="path899" />

		<path
   class="st0"
   d="m 221,645 -8.2,3.6 -8.6,3.8 c 0,0 -15,8.1 -8.1,23.6 v 0.2 c 10.9,16.9 25.3,30.7 41.8,40.9 4.3,2.1 15,5.5 20.4,-7.6 l 4.7,-10.5 3.6,-8.2 C 247.3,681.4 230.8,665.7 221,645 Z"
   id="path901" />

		<path
   class="st1"
   d="m 277.7,665.7 4,-9 C 270.5,651.2 261,642 255.1,630.1 l -9.2,4 -11.6,5.1 -13.3,5.8 c 9.8,20.7 26.3,36.4 45.8,45.6 l 5.9,-13.3 z"
   id="path903" />

		<path
   class="st2"
   d="m 281.7,656.5 8.4,-19.2 7.8,-17.6 c -0.2,-2.4 -1.6,-4.6 -4,-5.5 -0.6,-0.3 -1.4,-0.5 -2.2,-0.5 l -17.6,7.8 -19.2,8.4 c 6,12 15.5,21.1 26.8,26.6 z"
   id="path905" />

		<path
   class="st0"
   d="m 401.4,555.8 8.2,-3.6 9.2,-4.1 -0.8,0.2 c 3.3,-1.6 14.9,-7.9 8.4,-23.1 -11.1,-17.4 -26,-31.5 -43.1,-41.8 -12,-6.2 -19.5,7.9 -19.5,7.9 l -4.6,10.6 -3.6,8.2 c 19.5,9.1 36,24.8 45.8,45.7 z"
   id="path907" />

		<path
   class="st1"
   d="m 344.7,534.7 -4,9.2 c 11.2,5.5 20.7,14.7 26.8,26.8 l 9.2,-4 11.6,-5.1 13.1,-5.9 C 391.6,535 375.1,519.1 355.6,509.9 l -5.9,13.3 z"
   id="path909" />

		<path
   class="st2"
   d="m 340.8,543.9 -8.4,19.2 -7.8,17.9 c 0.2,2.4 1.6,4.4 4,5.4 0.6,0.3 1.4,0.5 2.2,0.5 l 17.7,-7.8 19.2,-8.4 C 361.5,558.6 352,549.6 340.8,543.9 Z"
   id="path911" />

		<path
   class="st0"
   d="m 346.8,703.9 -3.3,-8.4 c -21.7,7.8 -44.4,7.3 -64.6,0 l -3.3,8.4 -5.4,13.9 c 0,0 -2.7,10.9 13.1,16.9 0.3,0.2 0.6,0.3 1,0.3 18.2,3.8 37.4,3.8 56.2,-0.5 2.7,-0.8 15.8,-4.9 11.1,-18.7 z"
   id="path913" />

		<path
   class="st1"
   d="m 343.6,695.5 -5.2,-13.5 -4.6,-11.9 -3.6,-9.2 c -12.7,4.3 -25.8,4.1 -37.7,0 l -3.6,9.2 -4.6,11.9 -5.2,13.5 c 20.2,7.3 42.8,7.7 64.5,0 z"
   id="path915" />

		<path
   class="st2"
   d="m 330,661 -7.6,-19.5 -7,-17.9 c -1.7,-1.6 -4.4,-2.1 -6.8,-1.1 -0.6,0.3 -1.3,0.6 -1.7,1.1 l -7,17.9 -7.6,19.5 c 12,3.9 25,4.2 37.7,0 z"
   id="path917" />

		<path
   class="st0"
   d="m 275.4,496.5 3.3,8.4 c 21.7,-7.8 44.4,-7.3 64.6,-0.2 l 3.3,-8.4 3.3,-8.6 c 1.3,-3.5 4.9,-16.5 -10.9,-22.5 -0.2,0 -0.2,-0.2 -0.3,-0.2 -18.8,-3.8 -38.6,-3.8 -58.1,0.8 -4.4,1.4 -14.9,6.5 -9.3,20 z"
   id="path919" />

		<path
   class="st1"
   d="m 278.7,504.9 5.2,13.5 4.6,11.7 3.6,9.3 c 12.7,-4.3 25.8,-4.1 37.7,0 l 3.6,-9.3 4.6,-11.7 5.2,-13.5 c -20.2,-7.3 -42.8,-7.7 -64.5,0 z"
   id="path921" />

		<path
   class="st2"
   d="m 292.1,539.5 7.6,19.5 7.1,18.2 c 1.7,1.4 4.3,1.9 6.5,1 0.8,-0.3 1.4,-0.8 1.9,-1.3 l 7,-18.1 7.6,-19.5 c -11.8,-3.8 -25,-4.1 -37.7,0.2 z"
   id="path923" />

		<path
   class="st0"
   d="m 418.1,652.1 -1,-0.3 -7.4,-3.3 -8.2,-3.6 c -9.2,19.5 -24.9,35.8 -45.8,45.8 l 3.6,8.2 4.6,10.5 v 0 c 6,14.6 18.4,8.9 21.5,7 16.6,-10.5 30.3,-24.1 40.5,-39.9 0.2,-0.2 0.2,-0.3 0.3,-0.6 6.9,-15.7 -4.8,-22.2 -8.1,-23.8 z"
   id="path925" />

		<path
   class="st1"
   d="m 401.4,644.8 -13.3,-5.9 v 0 l -11.7,-5.1 -9,-4 c -5.5,11.2 -14.7,20.6 -26.6,26.5 l 4,9 5.1,11.7 5.9,13.3 c 20.6,-9.5 36.4,-26 45.6,-45.5 z"
   id="path927" />

		<path
   class="st2"
   d="m 367.4,630.1 -19.2,-8.4 -17.4,-7.6 c -0.6,0 -1.4,0.2 -2.1,0.5 -1.6,0.6 -2.9,1.9 -3.5,3.5 -0.3,0.6 -0.5,1.3 -0.5,2.1 l 7.6,17.4 8.4,19.2 c 11.9,-6.1 21.1,-15.5 26.7,-26.7 z"
   id="path929" />

	</g>
</svg>
